<svg width="31" height="32" viewBox="0 0 31 32" fill="none" xmlns="http://www.w3.org/2000/svg">
<path d="M27.9008 14.6V13.3C27.9008 6.5 22.4008 1 15.6008 1C8.80078 1 3.30078 6.5 3.30078 13.3V14.6" stroke="#0D67F9" stroke-width="2" stroke-miterlimit="10"/>
<path d="M5.1 23.1V14.3C2.8 14.3 1 16.1 1 18.4V19C1 21.3 2.9 23.1 5.1 23.1Z" stroke="#0D67F9" stroke-width="2" stroke-miterlimit="10"/>
<path d="M25.9004 23.1V14.3C28.2004 14.3 30.0004 16.1 30.0004 18.4V19C30.0004 21.3 28.2004 23.1 25.9004 23.1Z" stroke="#0D67F9" stroke-width="2" stroke-miterlimit="10"/>
<path d="M27.6008 22.8999V24.6999C27.6008 27.0999 25.7008 28.9999 23.3008 28.9999H18.3008" stroke="#0D67F9" stroke-width="2" stroke-miterlimit="10"/>
<path d="M16.4992 30.9001H14.0992C12.9992 30.9001 12.1992 30.0001 12.1992 29.0001C12.1992 27.9001 13.0992 27.1001 14.0992 27.1001H16.4992C17.5992 27.1001 18.3992 28.0001 18.3992 29.0001C18.3992 30.0001 17.4992 30.9001 16.4992 30.9001Z" stroke="#0D67F9" stroke-width="2" stroke-miterlimit="10"/>
</svg>
