<svg xmlns="http://www.w3.org/2000/svg" viewBox="-461 269 35.4 23" xmlns:v="https://vecta.io/nano"><path d="M-428.4 291.6h-30a2.22 2.22 0 0 1-2.2-2.2v-17.8a2.22 2.22 0 0 1 2.2-2.2h30a2.22 2.22 0 0 1 2.2 2.2v17.8c.1 1.2-.9 2.2-2.2 2.2z" fill="#83ba3b"/><path d="M-428.4 278.9c-.4-.2-1-.4-1.8-.4h-2.1l-.8 3.6h-2.7l.2-.8h1.6l.2-.9h-1.6l.2-.8h1.7l.2-1.1h-3.4l-.7 3.4h-1.3l.7-3.4h-1.8l-.7 3.4h-1.2l.7-3.4h-1.8l-.8 3.6h-2.7l.2-.8h1.6l.2-.9h-1.6l.2-.8h1.7l.2-1.1h-10.6l-.6 2.9-1.2-2.9h-1.9l-1 4.7h1.8l.6-3 1.2 3h6.3l.8-3.6h1l-.8 3.6h16.7l.5-2.3.8 2.3h1.8l-.8-1.9h.2c.4-.1.7-.2.9-.5.2-.2.3-.6.3-.9a1 1 0 0 0-.6-1h0zm-22.3 3.3h-2.7l.2-.8h1.7l.2-.9h-1.7l.2-.8h2.7l-.6 2.5h0zm20.9-1.6c-.2.1-.4.2-.8.2h-.3l.3-1.3h.3c.3 0 .5 0 .7.1.1.1.3.2.3.4-.2.3-.4.5-.5.6h0z" fill="#fff"/></svg>