<svg width="29" height="37" viewBox="0 0 29 37" fill="none" xmlns="http://www.w3.org/2000/svg">
<path d="M15.3008 22.6999V22.8999C15.3008 23.3999 14.9008 23.7999 14.4008 23.7999C13.9008 23.7999 13.5008 23.3999 13.5008 22.8999V22.7999C13.1008 22.6999 12.7008 22.5999 12.2008 22.2999C11.8008 21.9999 11.7008 21.4999 11.9008 21.0999C12.2008 20.6999 12.7008 20.5999 13.1008 20.7999C13.5008 21.0999 13.7008 21.0999 14.3008 21.0999C14.9008 21.0999 15.1008 20.5999 15.2008 20.3999C15.2008 20.1999 15.2008 19.7999 14.7008 19.6999C14.0008 19.3999 13.2008 19.0999 12.6008 18.6999C11.4008 17.6999 11.7008 15.4999 13.4008 14.8999V14.7999C13.4008 14.2999 13.8008 13.8999 14.3008 13.8999C14.8008 13.8999 15.2008 14.2999 15.2008 14.7999C15.6008 14.8999 16.0008 15.1999 16.2008 15.3999C16.5008 15.7999 16.5008 16.2999 16.2008 16.6999C15.8008 16.9999 15.3008 16.9999 14.9008 16.6999C14.9008 16.6999 14.6008 16.3999 14.0008 16.5999C13.8008 16.6999 13.7008 16.8999 13.7008 16.9999C13.7008 17.1999 13.7008 17.2999 13.7008 17.2999C14.0008 17.5999 14.7008 17.7999 15.2008 17.9999C17.8008 18.7999 17.5008 21.8999 15.3008 22.6999Z" fill="#0D67F9"/>
<path d="M11 33.7C4.8 30.2 1 23.7 1 16.7V7.1C2.6 7 9.8 6.4 14.4 2C19.1 6.5 26.2 7 27.8 7.1V16.7C27.8 23.7 24 30.3 17.9 33.7L14.4 35.7L11 33.7Z" stroke="#0D67F9" stroke-width="2" stroke-miterlimit="10"/>
<path d="M14.3996 27.1C9.79961 27.1 6.09961 23.4 6.09961 18.8C6.09961 14.2 9.79961 10.5 14.3996 10.5C18.9996 10.5 22.6996 14.2 22.6996 18.8C22.6996 23.4 18.9996 27.1 14.3996 27.1Z" stroke="#0D67F9" stroke-width="1.6252" stroke-miterlimit="10"/>
</svg>
