<svg width="31" height="32" viewBox="0 0 31 32" fill="none" xmlns="http://www.w3.org/2000/svg">
<path d="M23.4 14.1999H7.3C6.1 14.1999 5 13.1999 5 11.8999V4.1999C5 2.9999 6 1.8999 7.3 1.8999H23.4C24.6 1.8999 25.7 2.8999 25.7 4.1999V11.8999C25.6 13.1999 24.6 14.1999 23.4 14.1999Z" stroke="#0D67F9" stroke-width="2" stroke-miterlimit="10"/>
<path d="M4.2 30.6998C5.96731 30.6998 7.4 29.2671 7.4 27.4998C7.4 25.7325 5.96731 24.2998 4.2 24.2998C2.43269 24.2998 1 25.7325 1 27.4998C1 29.2671 2.43269 30.6998 4.2 30.6998Z" stroke="#0D67F9" stroke-width="2" stroke-miterlimit="10"/>
<path d="M26.5008 30.6998C28.2681 30.6998 29.7008 29.2671 29.7008 27.4998C29.7008 25.7325 28.2681 24.2998 26.5008 24.2998C24.7335 24.2998 23.3008 25.7325 23.3008 27.4998C23.3008 29.2671 24.7335 30.6998 26.5008 30.6998Z" stroke="#0D67F9" stroke-width="2" stroke-miterlimit="10"/>
<path d="M9.59961 20.0999L12.1996 17.3999" stroke="#0D67F9" stroke-width="2" stroke-miterlimit="10"/>
<path d="M11.8992 21.2999L7.19922 22.6999L8.29922 17.8999L11.8992 21.2999Z" fill="#0D67F9"/>
<path d="M21.0004 20.0999L18.4004 17.3999" stroke="#0D67F9" stroke-width="2" stroke-miterlimit="10"/>
<path d="M22.3012 17.8999L23.5012 22.6999L18.7012 21.2999L22.3012 17.8999Z" fill="#0D67F9"/>
<path d="M11.5 28.4998H15.7" stroke="#0D67F9" stroke-width="2" stroke-miterlimit="10"/>
<path d="M15 30.8999L19.2 28.4999L15 26.0999V30.8999Z" fill="#0D67F9"/>
</svg>
