<svg width="35" height="35" viewBox="0 0 35 35" fill="none" xmlns="http://www.w3.org/2000/svg">
<path d="M17.5 10.5998V2.2998" stroke="#0D67F9" stroke-width="2" stroke-miterlimit="10"/>
<path d="M14.6992 4.7999L17.4992 1.8999L20.3992 4.7999" stroke="#0D67F9" stroke-width="2" stroke-miterlimit="10"/>
<path d="M22.4004 12.6L28.2004 6.69995" stroke="#0D67F9" stroke-width="2" stroke-miterlimit="10"/>
<path d="M24.5 6.5H28.5V10.5" stroke="#0D67F9" stroke-width="2" stroke-miterlimit="10"/>
<path d="M24.4004 17.4998H32.7004" stroke="#0D67F9" stroke-width="2" stroke-miterlimit="10"/>
<path d="M30.2012 14.5999L33.1012 17.4999L30.2012 20.2999" stroke="#0D67F9" stroke-width="2" stroke-miterlimit="10"/>
<path d="M22.4004 22.2998L28.2004 28.1998" stroke="#0D67F9" stroke-width="2" stroke-miterlimit="10"/>
<path d="M28.5 24.3999V28.4999H24.5" stroke="#0D67F9" stroke-width="2" stroke-miterlimit="10"/>
<path d="M17.5 24.2998V32.5998" stroke="#0D67F9" stroke-width="2" stroke-miterlimit="10"/>
<path d="M20.3992 30.0999L17.4992 32.9999L14.6992 30.0999" stroke="#0D67F9" stroke-width="2" stroke-miterlimit="10"/>
<path d="M12.7008 22.2998L6.80078 28.1998" stroke="#0D67F9" stroke-width="2" stroke-miterlimit="10"/>
<path d="M10.6 28.4999H6.5V24.3999" stroke="#0D67F9" stroke-width="2" stroke-miterlimit="10"/>
<path d="M10.7004 17.4998H2.40039" stroke="#0D67F9" stroke-width="2" stroke-miterlimit="10"/>
<path d="M4.9 20.2999L2 17.4999L4.9 14.5999" stroke="#0D67F9" stroke-width="2" stroke-miterlimit="10"/>
<path d="M12.7008 12.6L6.80078 6.69995" stroke="#0D67F9" stroke-width="2" stroke-miterlimit="10"/>
<path d="M6.5 10.5V6.5H10.6" stroke="#0D67F9" stroke-width="2" stroke-miterlimit="10"/>
<path d="M17.5 24.5C21.366 24.5 24.5 21.366 24.5 17.5C24.5 13.634 21.366 10.5 17.5 10.5C13.634 10.5 10.5 13.634 10.5 17.5C10.5 21.366 13.634 24.5 17.5 24.5Z" stroke="#0D67F9" stroke-width="1.6252" stroke-miterlimit="10"/>
<path d="M21.0004 14.0999L18.1004 15.0999L19.2004 15.6999L17.8004 17.8999L16.6004 16.0999L13.9004 21.5999L14.1004 21.8999L16.6004 18.7999L17.8004 20.4999L20.4004 16.4999L21.2004 16.9999L21.0004 14.0999Z" fill="#0D67F9"/>
</svg>
