<?xml version="1.0" encoding="utf-8"?>
<!-- Generator: Adobe Illustrator 25.4.1, SVG Export Plug-In . SVG Version: 6.00 Build 0)  -->
<svg version="1.1" id="Layer_1" xmlns="http://www.w3.org/2000/svg" xmlns:xlink="http://www.w3.org/1999/xlink" x="0px" y="0px"
	 viewBox="0 0 50 50" style="enable-background:new 0 0 50 50;" xml:space="preserve">
<style type="text/css">
	.st0{fill:#74b22b;}
</style>
<g>
	<path class="st0" d="M44.9,15.1c-0.7,0.3-1.1,1.2-0.8,1.9c1,2.4,1.5,5,1.5,7.7c0,11.1-9,20.2-20.2,20.2s-20.2-9-20.2-20.2
		s9-20.2,20.2-20.2c4.2,0,8.2,1.3,11.6,3.7c1.1,0.8,2.2,1.7,3.1,2.8l-6,6l-11.9,12l-5.4-5.4c-0.4-0.4-1.1-0.6-1.6-0.4
		c-0.1,0.1-0.4,0.2-0.5,0.4c-0.6,0.6-0.6,1.6,0,2.2l6.6,6.6c0.2,0.2,0.5,0.4,0.8,0.4h0.3c0.3,0,0.6-0.1,0.8-0.2l20.2-20.2
		c0.1-0.1,0.2-0.3,0.3-0.4c0.3-0.5,0.3-1.2-0.1-1.7c-0.3-0.4-0.7-0.7-1-1.2c-1.1-1.2-2.3-2.2-3.7-3.2c-3.9-2.7-8.5-4.2-13.3-4.2
		C12.7,1.6,2.3,12,2.3,24.8s10.4,23.1,23.1,23.1s23.1-10.4,23.1-23.1c0-3.1-0.6-6-1.7-8.8C46.5,15.2,45.7,14.8,44.9,15.1L44.9,15.1z
		"/>
</g>
</svg>
