<svg xmlns="http://www.w3.org/2000/svg" viewBox="-461 269 35.4 23" xmlns:v="https://vecta.io/nano"><path d="M-428.4 291.6h-30a2.22 2.22 0 0 1-2.2-2.2v-17.8a2.22 2.22 0 0 1 2.2-2.2h30a2.22 2.22 0 0 1 2.2 2.2v17.8c.1 1.2-1 2.2-2.2 2.2z" fill="#32373c"/><path d="M-457.6 285.9h-1l.8-3.1h-1.1l.2-.7h3.2l-.2.7h-1.1c0 0-.8 3.1-.8 3.1zm3.3-1.4l-.4 1.5h-1l1-3.8h1.1c.5 0 .9.1 1.1.3.3.2.4.4.4.8 0 .3-.1.5-.3.7s-.4.3-.8.4l.8 1.6h-1l-.7-1.5h-.2 0zm.1-.7h.2c.3 0 .5 0 .6-.1s.2-.2.2-.4c0-.1-.1-.2-.2-.3s-.3-.1-.5-.1h-.2l-.1.9h0zm5.1 1.2h-1.5l-.5.9h-1l2.4-3.8h1.2l.5 3.8h-.9c-.1 0-.2-.9-.2-.9zm0-.6l-.1-.9v-.7-.1c-.1.2-.2.4-.3.7l-.6 1h1 0zm5.5 1.5h-1.1l-1.1-2.9h0v.1c-.1.4-.1.7-.2 1l-.5 1.8h-.9l1-3.8h1.1l1.1 2.8h0c0-.1.1-.3.1-.6.1-.2.2-1 .6-2.2h.9l-1 3.8h0zm4.1-1.1c0 .4-.2.6-.5.9-.3.2-.7.3-1.3.3-.5 0-.8-.1-1.1-.2v-.7c.4.2.8.3 1.1.3.2 0 .4 0 .6-.1.1-.1.2-.2.2-.3v-.2c0-.1-.1-.1-.1-.2-.1 0-.2-.1-.4-.3-.3-.2-.5-.3-.6-.5s-.2-.3-.2-.5.1-.4.2-.6.3-.3.6-.4c.2-.1.5-.1.8-.1.5 0 .9.1 1.3.3l-.3.6c-.3-.1-.6-.2-.9-.2-.2 0-.3 0-.4.1s-.2.2-.2.3 0 .2.1.3.2.2.5.3.4.3.6.5c0 0 0 .2 0 .4h0zm1.8 1.1h-1l1-3.8h2.6l-.2.7h-1.6l-.3 1h1.5l-.2.7h-1.5l-.3 1.4h0zm5.2 0h-2.6l1-3.8h2.6l-.2.7h-1.6l-.2.8h1.5l-.2.7h-1.5l-.3 1h1.6l-.1.6h0zm2.4-1.4l-.4 1.5h-1l1-3.8h1.1c.5 0 .9.1 1.1.3.3.2.4.4.4.8 0 .3-.1.5-.3.7s-.4.3-.8.4l.8 1.6h-1l-.7-1.5h-.2 0zm.2-.7h.2c.3 0 .5 0 .6-.1.2-.1.2-.2.2-.4 0-.1-.1-.2-.2-.3s-.3-.1-.5-.1h-.2l-.1.9h0zm-14.6-7.5c.5 0 .8.1 1.1.2.2.1.4.4.4.6 0 .3-.1.5-.3.7s-.4.3-.7.3h0a.55.55 0 0 1 .5.3c.1.1.2.3.2.5 0 .4-.2.7-.5.9s-.8.3-1.3.3h-1.7l1-3.9c-.1.1 1.3.1 1.3.1zm-1.2 3.2h.6c.2 0 .4-.1.6-.2.1-.1.2-.2.2-.4 0-.3-.2-.4-.6-.4h-.5l-.3 1zm.4-1.7h.5c.3 0 .4 0 .6-.1.1-.1.2-.2.2-.4s-.2-.4-.5-.4h-.5c-.1.1-.3.9-.3.9zm5.1 1.5h-1.5l-.5.9h-1l2.4-3.9h1.2l.5 3.9h-.9l-.2-.9h0zm0-.7l-.1-.9v-.7-.1c-.1.2-.2.4-.3.7l-.6 1c-.1 0 1 0 1 0zm5.5 1.6h-1.1l-1.1-2.9h0v.1c-.1.4-.1.7-.2 1l-.5 1.8h-.9l1-3.9h1.1l1.1 2.8h0c0-.1.1-.3.1-.6.1-.2.2-1 .6-2.3h.9l-1 4h0zm4.8 0h-1.1l-.7-1.6-.4.2-.3 1.4h-1l1-3.9h1l-.5 1.9.5-.5 1.3-1.3h1.1l-1.9 1.9 1 1.9h0zm-18.9-3.5c0-.2-.2-.4-.4-.4h-8.5c-.2 0-.4.2-.4.4h0c0 .2.2.4.4.4h8.5c.2 0 .4-.2.4-.4h0zm-2.3 1.5c0-.2-.2-.4-.4-.4h-6.2c-.2 0-.4.2-.4.4h0c0 .2.2.4.4.4h6.2c.2 0 .4-.2.4-.4h0zm-2.4 1.6c0-.2-.2-.4-.4-.4h-3.9c-.2 0-.4.2-.4.4h0c0 .2.2.4.4.4h3.9c.3 0 .4-.2.4-.4h0z" fill="#fff"/></svg>