<?xml version="1.0" encoding="utf-8"?>
<!-- Generator: Adobe Illustrator 22.1.0, SVG Export Plug-In . SVG Version: 6.00 Build 0)  -->
<svg version="1.1" id="레이어_1" xmlns="http://www.w3.org/2000/svg" xmlns:xlink="http://www.w3.org/1999/xlink" x="0px"
	 y="0px" viewBox="0 0 578 163.2" style="enable-background:new 0 0 578 163.2;" xml:space="preserve">
<style type="text/css">
	.st0{fill:#EA5504;}
</style>
<g>
	<path class="st0" d="M112.7,99.3c0,9.3-2.9,16.5-8.8,21.6c-5.8,5.1-14,7.7-24.4,7.7c-4.4,0-8.5-0.5-12.4-1.5
		c-3.9-1.1-7.2-2.5-10-4.5v-21.9c3.3,2.2,7.1,4.1,11.4,5.6c4.3,1.5,8.2,2.3,11.7,2.3c2.9,0,5.2-0.7,6.7-1.9c1.5-1.3,2.3-3.1,2.3-5.5
		c0-1.1-0.2-2.2-0.7-3.2c-0.5-1-1.2-2-2-2.9c-0.9-1-3.2-3.1-7-6.5c-4.6-3.9-8-7.9-10.1-12c-2.1-4.1-3.1-8.6-3.1-13.5
		c0-5.5,1.3-10.4,3.9-14.7c2.6-4.4,6.3-7.7,11-10.1c4.7-2.4,10-3.6,15.9-3.6c9.5,0,18,2.2,25.6,6.7l-8.1,18.6
		c-6.8-3.7-12.5-5.5-17.3-5.5c-2.5,0-4.5,0.6-5.9,1.8c-1.4,1.2-2,2.9-2,5.1c0,2,0.7,4,2,5.7c1.3,1.8,3.9,4.1,7.6,7.1
		c4.7,3.6,8.1,7.5,10.4,11.5C111.5,89.6,112.7,94.1,112.7,99.3z"/>
	<path class="st0" d="M153.7,127.4h-23.2l14.1-71.3h-18.8l4.1-20.2h61.1l-4.2,20.2h-18.9L153.7,127.4z"/>
	<path class="st0" d="M180.6,127.4l18.4-91.5h23.6l-18.4,91.5H180.6z"/>
	<path class="st0" d="M269.5,54.9c-4.3,0-8.2,1.6-11.6,4.9c-3.4,3.3-6.1,7.7-8.1,13.5c-2,5.7-2.9,11.9-2.9,18.6
		c0,5.6,1.1,9.8,3.3,12.5c2.2,2.7,5.4,4.1,9.6,4.1c3.3,0,6.6-0.4,10-1.3c3.4-0.9,7.3-2.3,11.9-4.4v20.2c-8.1,3.8-16.8,5.6-26.2,5.6
		c-10.3,0-18.3-3.1-23.8-9.3c-5.6-6.2-8.3-15-8.3-26.3c0-11.1,2-21.3,6-30.5c4-9.3,9.5-16.2,16.4-21c6.9-4.7,14.8-7.1,23.8-7.1
		c10.5,0,20,2.7,28.6,8.2l-8.8,19.1c-3.7-2.3-7.1-4-10.2-5.2C276,55.5,272.8,54.9,269.5,54.9z"/>
	<path class="st0" d="M363.3,63.3c0,10.5-3.4,18.8-10.2,24.7c-6.8,6-16.1,9-27.9,9H320l-6,30.4h-23.2l18.4-91.5h22.2
		c10.3,0,18.2,2.4,23.6,7.1C360.5,47.8,363.3,54.6,363.3,63.3z M324.2,77.1h3.8c3.6,0,6.5-1.2,8.7-3.7c2.2-2.4,3.3-5.5,3.3-9.3
		c0-2.5-0.7-4.4-2.1-6c-1.4-1.5-3.4-2.3-5.9-2.3h-3.5L324.2,77.1z"/>
	<path class="st0" d="M410.9,110.3h-26.6l-7.5,17.1h-24.1l44.2-91.5h29.9l7.3,91.5h-22.6L410.9,110.3z M392.8,90.8h17.4l-1-26.5
		l-0.1-5.4c0-3.1,0.1-5.9,0.2-8.2c-0.9,3.6-2.2,7.1-3.6,10.4L392.8,90.8z"/>
	<path class="st0" d="M476.4,69.9L495,35.9h25.9l-36.4,56l-7.2,35.5H454l7.1-35.5l-14.1-56h24L476.4,69.9z"/>
</g>
</svg>
