<svg xmlns="http://www.w3.org/2000/svg" viewBox="-461 269 35.4 23" xmlns:v="https://vecta.io/nano"><linearGradient id="A" gradientUnits="userSpaceOnUse" x1="-460.578" y1="280.5" x2="-426.128" y2="280.5"><stop offset="0" stop-color="#6b195f"/><stop offset="1" stop-color="#4c255b"/></linearGradient><path d="M-428.4 291.6h-30a2.22 2.22 0 0 1-2.2-2.2v-17.8a2.22 2.22 0 0 1 2.2-2.2h30a2.22 2.22 0 0 1 2.2 2.2v17.8c.1 1.2-1 2.2-2.2 2.2z" fill="url(#A)"/><path d="M-436.7 277.8c.7 0 1.3-.6 1.3-1.3s-.6-1.3-1.3-1.3-1.3.6-1.3 1.3c.1.7.6 1.3 1.3 1.3h0zm-9.6.7c-.1.1-.5 1.3-1.5 2.5v-5.1l-2.6.5v9.3h2.6v-2.9c.8 1.1 1.1 2.9 1.1 2.9h3.1c-.3-1.3-1.7-3.7-1.7-3.7 1.2-1.6 1.8-3.2 1.8-3.5h-2.8 0zm6.9-.1c-2.4.1-3.5 1.1-3.5 3.2v4h2.6v-3.3c0-1.3.2-1.8 1.7-1.8v-2.1c-.4-.1-.8 0-.8 0h0zm-15.4 1.1c-.3 0-1.1-.1-1.1-.7 0-.8 1.1-.8 1.5-.8.7 0 1.6.2 2.3.4 0 0 .4.1.7.3h0v-2.2h0c-.8-.3-1.7-.5-3.3-.5-2.9 0-3.9 1.7-3.9 3.1 0 .8.4 2.8 3.6 3 .3 0 1 .1 1 .8 0 .6-.6.9-1.6.9-1.1 0-2.2-.3-2.9-.6v2.3c1 .3 2.1.4 3.4.4 2.8 0 4.1-1.6 4.1-3.2 0-1.9-1.4-3.1-3.8-3.2h0zm16.9 6.1h2.5v-7.1h-2.5v7.1zm7.3-9.3v9.3h2.5v-9.8l-2.5.5h0zm-3.7 0l2.5-.5v9.8h-2.5v-9.3h0z" fill="#fff"/></svg>