<svg xmlns="http://www.w3.org/2000/svg" viewBox="0 0 70.594 76.9" fill="#cdd2d5"><path d="M35.375 19.2h-6.4a3.2 3.2 0 0 0 0 6.4h6.4a3.2 3.2 0 1 0 0-6.4Z"/><path d="M69.675 20.1 50.475.9a3.168 3.168 0 0 0-2.3-.9h-32.1a3.16 3.16 0 0 0-3.2 3.2v17.9L.975 32.9a3.083 3.083 0 0 0 0 4.5l11.9 12v24.3a3.16 3.16 0 0 0 3.2 3.2h51.3a3.16 3.16 0 0 0 3.2-3.2V22.4a2.54 2.54 0 0 0-.9-2.3Zm-18.3-9.2 8.3 8.3h-8.3Zm-12.8 46.7h-8.3l-3.2-3.2 8.3-8.3 3.2 3.2Zm-7.8-16-8.3 8.3-14.7-14.7 8.3-8.3Zm-4.1 21.5a3.168 3.168 0 0 0 2.3.9h25.7a3.2 3.2 0 1 0 0-6.4h-9.6v-6.4h9.6a3.2 3.2 0 0 0 0-6.4h-11.6l-6.4-6.4h17.9a3.2 3.2 0 0 0 0-6.4h-24.3l-10.9-10.9-.1-.1V6.3h19.2a6.445 6.445 0 0 1 6.4 6.4v9.7a3.16 3.16 0 0 0 3.2 3.2h16v44.9h-44.8V55.8Z"/></svg>